<svg xmlns="http://www.w3.org/2000/svg" viewBox="0 0 1200 802.23">
      <path class="cls-3" d="M296.63,799.52l11.77-11s-2.32-9.81,15.68-20.5c0,0,21-27.27,27.8-34.75S384,698.65,384,698.65L404.63,678s9.63.89,25.49,1.6c0,0,11.58-2.31,32.43-.71s7.67-3.92,36.9.89c0,0,20.67-.71,32.43,1.25,0,0,18.71-5.17,31-.36,0,0,19.43-2.14,33.68-.35l46.34,1.07s2.67-2.68,19.07.89c0,0,12.65-.36,18.36-2.5s22.64.24,25.84,2c3.65,2,24.88-2.8,25.13-2.76,22.63,3.56,15.43,2.55,15.43,2.55l8.8.39s3.93-2.32,5.71-2.49,45.09.53,45.09.53,18.71,11.23,29.22,35.64c0,0,12.12,15.87,15.51,17.11S889.74,786,889.74,786s10.16,8.91,11.76,14.08S296.63,799.52,296.63,799.52Z"/>
</svg>
