<?xml version="1.0" encoding="utf-8"?>
<!-- Generator: Adobe Illustrator 23.0.2, SVG Export Plug-In . SVG Version: 6.00 Build 0)  -->
<svg version="1.1" id="Layer_1" xmlns="http://www.w3.org/2000/svg" xmlns:xlink="http://www.w3.org/1999/xlink" x="0px" y="0px"
	 viewBox="0 0 1145 693" style="enable-background:new 0 0 1145 693;" xml:space="preserve">
<style type="text/css">
	.st0{opacity:0;}
	.st1{fill:#E91B1A;}
</style>
<image style="overflow:visible;" width="1145" height="693" xlink:href="3-4.jpg" >
</image>
<g>
	
		<image style="overflow:visible;enable-background:new    ;" width="285" height="285" xlink:href="CA003.png"  transform="matrix(0.1087 3.793031e-02 -3.365928e-02 9.646017e-02 151.8101 160.0001)">
	</image>
</g>
<g>
	
		<image style="overflow:visible;enable-background:new    ;" width="285" height="285" xlink:href="CA003.png"  transform="matrix(7.159766e-02 1.348941e-02 -1.230927e-02 6.533383e-02 389.5081 222)">
	</image>
</g>
<g id="Layer_3">
	
		<image style="overflow:visible;enable-background:new    ;" width="285" height="285" xlink:href="CA003.png"  transform="matrix(5.891920e-02 9.303031e-03 -8.208556e-03 5.198753e-02 534.3394 255)">
	</image>
</g>
<g id="Layer_4">
	
		<image style="overflow:visible;enable-background:new    ;" width="285" height="285" xlink:href="CA003.png"  transform="matrix(4.210526e-02 0 0 3.859649e-02 633 279)">
	</image>
</g>
<g id="Layer_5">
	
		<image style="overflow:visible;enable-background:new    ;" width="285" height="285" xlink:href="CA003.png"  transform="matrix(4.210526e-02 0 0 3.421053e-02 704 294)">
	</image>
</g>
<g id="Layer_6">
	
		<image style="overflow:visible;enable-background:new    ;" width="285" height="285" xlink:href="CA003.png"  transform="matrix(3.611519e-02 -5.598320e-03 5.598320e-03 3.611519e-02 796 280.5955)">
	</image>
</g>
<g id="Layer_7">
	
		<image style="overflow:visible;enable-background:new    ;" width="285" height="285" xlink:href="CA003.png"  transform="matrix(6.284651e-02 -6.263822e-03 4.354127e-03 4.368606e-02 920 257.7852)">
	</image>
</g>
<g id="Layer_8">
	
		<image style="overflow:visible;enable-background:new    ;" width="285" height="285" xlink:href="CA003.png"  transform="matrix(0.1055 -1.761594e-02 1.287164e-02 7.712057e-02 1099.3317 221.0206)">
	</image>
</g>
<g id="Layer_9">
	
		<image style="overflow:visible;enable-background:new    ;" width="285" height="285" xlink:href="CA003.png"  transform="matrix(0.1227 -2.216477e-02 1.870213e-02 0.1035 1083 171.317)">
	</image>
</g>
<g id="Layer_10">
	
		<image style="overflow:visible;enable-background:new    ;" width="285" height="285" xlink:href="CA003.png"  transform="matrix(0.1837 -7.505728e-02 5.837636e-02 0.1429 1047 78.6653)">
	</image>
</g>
<g id="Layer_11">
	
		<image style="overflow:visible;enable-background:new    ;" width="285" height="285" xlink:href="CA003.png"  transform="matrix(0.1588 6.595337e-02 -5.770532e-02 0.1389 169.7967 60)">
	</image>
</g>
<g id="Layer_2" class="st0">
	<rect class="st1" width="1145" height="693"/>
</g>
</svg>
