<svg xmlns="http://www.w3.org/2000/svg" xmlns:xlink="http://www.w3.org/1999/xlink" viewBox="0 0 990.86 246.48"><defs><image id="image" width="285" height="285" xlink:href="CA003.png"/></defs><title>light123</title><g id="Layer_1" data-name="Layer 1"><use transform="matrix(0.11, 0.04, -0.03, 0.1, 9.59, 102.73)" xlink:href="#image"/></g><g id="Layer_2" data-name="Layer 2"><use transform="matrix(0.07, 0.01, -0.01, 0.07, 389.51, 222)" xlink:href="#image"/></g><g id="Layer_3" data-name="Layer 3"><use transform="translate(534.34 255) rotate(8.97) scale(0.06 0.05)" xlink:href="#image"/></g><g id="Layer_4" data-name="Layer 4"><use transform="translate(633 279) scale(0.04 0.04)" xlink:href="#image"/></g><g id="Layer_5" data-name="Layer 5"><use transform="translate(704 294) scale(0.04 0.03)" xlink:href="#image"/></g><g id="Layer_6" data-name="Layer 6"><use transform="translate(796 280.6) rotate(-8.81) scale(0.04)" xlink:href="#image"/></g><g id="Layer_7" data-name="Layer 7"><use transform="matrix(0.06, -0.01, 0, 0.04, 920, 257.79)" xlink:href="#image"/></g><g id="Layer_8" data-name="Layer 8"><use transform="matrix(0.11, -0.02, 0.01, 0.08, 1099.33, 221.02)" xlink:href="#image"/></g><g id="Layer_9" data-name="Layer 9"><use transform="matrix(0.12, -0.02, 0.02, 0.1, 1083, 171.32)" xlink:href="#image"/></g><g id="Layer_10" data-name="Layer 10"><use transform="matrix(0.18, -0.08, 0.06, 0.14, 1047, 78.67)" xlink:href="#image"/></g><g id="Layer_11" data-name="Layer 11"><use transform="matrix(0.16, 0.07, -0.06, 0.14, 169.8, 60)" xlink:href="#image"/></g></svg>